HIERARCHY
ROOT Hips
{
	OFFSET -3.958830 18.904000 13.208200
	CHANNELS 6 Xposition Yposition Zposition Zrotation Yrotation Xrotation 
	JOINT LHipJoint
	{
		OFFSET 0.000000 0.000000 0.000000
		CHANNELS 3 Zrotation Yrotation Xrotation
		JOINT LeftUpLeg
		{
			OFFSET 1.800000 -1.400000 0.085000
			CHANNELS 3 Zrotation Yrotation Xrotation
			JOINT LeftLeg
			{
				OFFSET 2.215000 -6.000000 0.000000
				CHANNELS 3 Zrotation Yrotation Xrotation
				JOINT LeftFoot
				{
					OFFSET 2.500000 -6.900000 0.000000
					CHANNELS 3 Zrotation Yrotation Xrotation
					JOINT LeftToeBase
					{
						OFFSET 0.200000 -0.500000 1.950000
						CHANNELS 3 Zrotation Yrotation Xrotation
						End Site
						{
							OFFSET 0.000000 0.000000 0.000000
						}
					}
				}
			}
		}
	}
	JOINT RHipJoint
	{
		OFFSET 0.000000 0.000000 0.000000
		CHANNELS 3 Zrotation Yrotation Xrotation
		JOINT RightUpLeg
		{
			OFFSET -1.800000 -1.400000 0.085000
			CHANNELS 3 Zrotation Yrotation Xrotation
			JOINT RightLeg
			{
				OFFSET -2.215000 -6.000000 0.000000
				CHANNELS 3 Zrotation Yrotation Xrotation
				JOINT RightFoot
				{
					OFFSET -2.500000 -6.900000 0.000000
					CHANNELS 3 Zrotation Yrotation Xrotation
					JOINT RightToeBase
					{
						OFFSET -0.200000 -0.500000 1.950000
						CHANNELS 3 Zrotation Yrotation Xrotation
						End Site
						{
							OFFSET 0.000000 0.000000 0.000000
						}
					}
				}
			}
		}
	}
	JOINT LowerBack
	{
		OFFSET 0.000000 0.000000 0.000000
		CHANNELS 3 Zrotation Yrotation Xrotation
		JOINT Spine
		{
			OFFSET -0.087000 1.940000 -0.288900
			CHANNELS 3 Zrotation Yrotation Xrotation
			JOINT Spine1
			{
				OFFSET 0.000000 1.950000 0.060000
				CHANNELS 3 Zrotation Yrotation Xrotation
				JOINT Neck
				{
					OFFSET 0.000000 0.000000 0.000000
					CHANNELS 3 Zrotation Yrotation Xrotation
					JOINT Neck1
					{
						OFFSET 0.000000 1.600000 0.340000
						CHANNELS 3 Zrotation Yrotation Xrotation
						JOINT Head
						{
							OFFSET 0.000000 1.667000 -0.240000
							CHANNELS 3 Zrotation Yrotation Xrotation
							End Site
							{
								OFFSET 0.000000 0.000000 0.000000
							}
						}
					}
				}
				JOINT LeftShoulder
				{
					OFFSET 0.000000 0.000000 0.000000
					CHANNELS 3 Zrotation Yrotation Xrotation
					JOINT LeftArm
					{
						OFFSET 2.700000 1.550000 -0.730000
						CHANNELS 3 Zrotation Yrotation Xrotation
						JOINT LeftForeArm
						{
							OFFSET 5.450000 0.000000 0.000000
							CHANNELS 3 Zrotation Yrotation Xrotation
							JOINT LeftHand
							{
								OFFSET 3.450000 0.000000 0.000000
								CHANNELS 3 Zrotation Yrotation Xrotation
								JOINT LeftHandIndex1
								{
									OFFSET 0.750000 0.000000 0.000000
									CHANNELS 3 Zrotation Yrotation Xrotation
									End Site
									{
										OFFSET 0.000000 0.000000 0.000000
									}
								}
							}
						}
					}
				}
				JOINT RightShoulder
				{
					OFFSET 0.000000 0.000000 0.000000
					CHANNELS 3 Zrotation Yrotation Xrotation
					JOINT RightArm
					{
						OFFSET -2.700000 1.550000 -0.730000
						CHANNELS 3 Zrotation Yrotation Xrotation
						JOINT RightForeArm
						{
							OFFSET -5.450000 0.000000 0.000000
							CHANNELS 3 Zrotation Yrotation Xrotation
							JOINT RightHand
							{
								OFFSET -3.450000 0.000000 0.000000
								CHANNELS 3 Zrotation Yrotation Xrotation
								JOINT RightHandIndex1
								{
									OFFSET -0.750000 0.000000 0.000000
									CHANNELS 3 Zrotation Yrotation Xrotation
									End Site
									{
										OFFSET 0.000000 0.000000 0.000000
									}
								}
							}
						}
					}
				}
			}
		}
	}
}
MOTION
Frames: 9
Frame Time: 0.016667
0.255160 17.294470 -1.110940 -4.276400 -5.367515 9.514071 -15.394018 12.687773 2.943685 -0.877474 -1.218684 -8.961891 -8.601765 3.974645 2.261902 -1.353706 5.630579 3.594305 -0.159410 -1.007130 -0.304860 18.144643 -10.363891 2.573090 -20.506656 1.500311 -12.680377 2.265087 -4.074105 -0.413895 -0.356612 -4.542145 2.886833 -0.139150 2.063500 1.122140 -3.101232 -1.583763 -6.739819 1.439279 3.117247 1.008653 5.862991 1.741670 5.564128 1.411286 2.265187 -7.486561 3.819063 4.762342 19.832324 -8.904930 4.611310 -2.257100 -15.192745 -5.069702 2.421265 -13.451529 -2.555368 2.096359 8.275215 -7.982167 -2.617671 -5.330025 2.412412 0.809510 1.298990 -0.534370 0.678260 13.516364 4.023264 3.231145 17.492467 7.152900 -2.256467 -7.463015 13.694824 -1.235723 1.327654 -1.285300 -0.935710 0.926880 0.759840 -0.092990 
0.254600 17.292900 -1.110360 -4.248584 -5.322549 9.540712 -15.394822 12.680302 2.936923 -0.851800 -1.222892 -9.019251 -8.720320 4.005141 2.326153 -1.363154 5.646568 3.589652 -0.160000 -0.999190 -0.307500 18.145911 -10.350139 2.574555 -20.803562 1.506550 -12.686108 2.177954 -4.065036 -0.476140 -0.353966 -4.566956 2.876453 -0.126030 2.072750 1.117800 -3.104174 -1.595025 -6.730531 1.378556 3.119528 0.917520 5.895207 1.730392 5.665414 1.379351 2.300061 -7.419413 3.879493 4.769588 19.626871 -8.976030 4.610570 -2.273540 -15.240248 -5.030477 2.381579 -12.757373 -2.511029 2.157349 8.154217 -7.975355 -2.604690 -5.342013 2.407637 0.799960 1.310280 -0.541930 0.677650 13.630895 3.934039 3.163846 16.888292 7.115366 -2.221531 -7.552889 13.667375 -1.256982 1.320310 -1.289087 -0.942860 0.937080 0.761960 -0.092200 
0.254470 17.288020 -1.107610 -4.282413 -5.230259 9.672840 -15.388678 12.655240 2.921204 -0.746871 -1.254371 -9.173652 -8.911666 4.037748 2.383756 -1.388951 5.682547 3.582844 -0.147160 -0.978160 -0.305120 18.157320 -10.328343 2.578690 -21.269925 1.538351 -12.773607 2.077992 -4.043340 -0.574605 -0.347699 -4.619141 2.854330 -0.092920 2.097310 1.119400 -3.134436 -1.588144 -6.704880 1.450482 3.089694 0.642432 5.902814 1.676985 5.887122 1.283149 2.315729 -7.268721 3.925470 4.873176 19.039554 -9.058090 4.592960 -2.138580 -15.132663 -4.854475 2.295244 -11.711216 -2.433229 2.290799 7.839199 -8.138529 -2.595439 -5.370479 2.416751 0.776560 1.340580 -0.564020 0.684450 13.711227 3.685773 2.973095 15.925511 7.222588 -2.099795 -7.793418 13.459595 -1.329557 1.301697 -1.316206 -0.954790 0.950970 0.761130 -0.092210 
0.253460 17.284430 -1.103470 -4.266704 -5.127373 9.689720 -15.388896 12.636125 2.910406 -0.659469 -1.246855 -9.156699 -9.108475 4.075757 2.376995 -1.401618 5.716985 3.572579 -0.142940 -0.969740 -0.302930 18.160165 -10.298842 2.592614 -21.891643 1.556071 -12.719721 1.934018 -4.032462 -0.777231 -0.349650 -4.675069 2.831246 -0.075900 2.107260 1.115600 -3.142621 -1.601487 -6.703992 1.425496 3.083478 0.523100 5.907862 1.653350 6.067750 1.241845 2.339085 -7.242337 3.967735 4.920416 18.792405 -9.108800 4.590790 -2.130620 -15.045377 -4.848293 2.287953 -10.362280 -2.168826 2.389002 7.530048 -8.276466 -2.570561 -5.380705 2.419021 0.768350 1.353640 -0.575070 0.684760 13.704372 3.620130 2.945693 14.793476 7.139657 -2.014423 -7.976887 13.063308 -1.347078 1.295811 -1.325256 -0.965090 0.961020 0.762310 -0.095230 
0.250380 17.281540 -1.098450 -4.272743 -5.023321 9.674469 -15.391064 12.616434 2.899651 -0.501636 -1.221673 -9.063721 -9.335994 4.111519 2.284253 -1.406040 5.759834 3.558807 -0.139900 -0.965380 -0.298570 18.161307 -10.263883 2.609355 -22.560364 1.568082 -12.633131 1.903969 -4.047163 -0.963994 -0.355892 -4.737716 2.803899 -0.065090 2.113290 1.117780 -3.145494 -1.622280 -6.706704 1.360564 3.100732 0.397855 6.006889 1.623887 6.346559 1.196807 2.386233 -7.288128 4.044820 4.907930 18.623132 -9.248710 4.607350 -2.137560 -14.836723 -4.942360 2.349464 -9.068151 -1.928223 2.502600 7.216158 -8.150981 -2.542094 -5.393266 2.421515 0.762120 1.365230 -0.581230 0.683740 13.585298 3.633963 2.980686 13.688969 7.017326 -1.954589 -8.354604 12.514706 -1.370502 1.294084 -1.334660 -0.970150 0.965320 0.763920 -0.098840 
0.246350 17.281000 -1.094350 -4.206111 -4.973620 9.583919 -15.400284 12.601024 2.893855 -0.409750 -1.170585 -8.851808 -9.536288 4.135943 2.111430 -1.402276 5.793209 3.545394 -0.136540 -0.962450 -0.290650 18.155683 -10.219622 2.630123 -23.314358 1.565463 -12.508329 1.932657 -4.081944 -1.159674 -0.368776 -4.798898 2.777182 -0.063250 2.105970 1.117570 -3.128032 -1.665715 -6.721486 1.138867 3.165552 0.359935 6.182323 1.629258 6.659039 1.172507 2.453324 -7.401373 4.141181 4.837506 18.675059 -9.414520 4.648140 -2.297450 -14.750247 -5.186175 2.474610 -7.639812 -1.560687 2.593099 6.899862 -7.900931 -2.507062 -5.391054 2.421300 0.767420 1.364290 -0.577760 0.679490 13.552957 3.802953 3.110753 12.400507 6.756524 -1.929074 -8.664087 11.846044 -1.355606 1.299264 -1.334387 -0.970690 0.964700 0.763180 -0.105250 
0.239660 17.280610 -1.089130 -4.124077 -4.979718 9.473774 -15.408025 12.590718 2.888889 -0.378916 -1.111679 -8.592618 -9.591474 4.129963 1.911241 -1.388762 5.813375 3.539295 -0.133870 -0.959420 -0.286650 18.151224 -10.184698 2.646629 -24.014226 1.553877 -12.425410 1.930277 -4.117011 -1.265923 -0.383004 -4.850077 2.749239 -0.065420 2.102450 1.123010 -3.113548 -1.703228 -6.734816 0.915456 3.218134 0.336013 6.300060 1.638293 6.931782 1.122485 2.483429 -7.510438 4.177307 4.788535 18.751185 -9.433360 4.621800 -2.404180 -14.658259 -5.403531 2.602449 -6.132581 -1.057640 2.669056 6.576698 -7.768758 -2.471283 -5.383135 2.431338 0.769310 1.360910 -0.570190 0.679850 13.560126 3.983547 3.233505 11.094339 6.562562 -1.875539 -8.824198 11.004170 -1.319202 1.316548 -1.333881 -0.964820 0.961920 0.760820 -0.102920 
0.234320 17.282660 -1.084730 -4.140675 -4.951929 9.325420 -15.414152 12.591013 2.885000 -0.254183 -1.046398 -8.325251 -9.623285 4.128614 1.741722 -1.379624 5.833633 3.528027 -0.137250 -0.964450 -0.289240 18.145964 -10.160177 2.659178 -24.494207 1.539087 -12.284573 1.907912 -4.149818 -1.352938 -0.395614 -4.884955 2.730258 -0.072680 2.093420 1.124880 -3.098861 -1.742674 -6.751971 0.870701 3.236837 0.383658 6.389390 1.622949 7.176293 1.081811 2.446202 -7.630979 4.091046 4.746006 18.974627 -9.431760 4.573120 -2.592610 -14.563807 -5.628262 2.725709 -4.861356 -0.655711 2.727824 6.466509 -7.496700 -2.451738 -5.372299 2.433881 0.780860 1.350550 -0.560720 0.676340 13.544496 4.202498 3.390677 9.760444 6.295395 -1.861768 -8.921511 10.246980 -1.258249 1.331480 -1.323791 -0.962130 0.958900 0.765000 -0.103840 
0.227980 17.286840 -1.081270 -4.153423 -4.928698 9.145730 -15.421278 12.599793 2.879866 -0.123045 -0.990981 -8.094955 -9.630811 4.141858 1.706054 -1.372862 5.847457 3.516616 -0.133840 -0.967230 -0.283720 18.137772 -10.140033 2.672563 -24.931640 1.516417 -12.133051 1.989525 -4.199783 -1.386326 -0.411973 -4.912577 2.713188 -0.081370 2.075520 1.125910 -3.077376 -1.788023 -6.771465 0.793752 3.242919 0.495291 6.453752 1.607863 7.323289 1.065766 2.409871 -7.724833 3.998836 4.726955 19.311255 -9.393320 4.550920 -2.892700 -14.483822 -5.793430 2.812413 -3.625678 -0.257079 2.772435 6.428767 -7.225732 -2.438784 -5.352551 2.437313 0.801580 1.331710 -0.546030 0.673010 13.497421 4.375084 3.520979 8.564288 6.110518 -1.850294 -8.894092 9.475645 -1.181887 1.348232 -1.310202 -0.958120 0.953550 0.765430 -0.109180 
